<svg width="120" height="120" viewBox="0 0 120 120" fill="none" xmlns="http://www.w3.org/2000/svg">
  <circle cx="60" cy="60" r="60" fill="#FF3366"/>
  
  <!-- 再生ボタン -->
  <path d="M45 40V80L85 60L45 40Z" fill="white"/>
  
  <!-- グラフ要素 (半透明で重ねる) -->
  <rect x="30" y="75" width="12" height="30" rx="4" fill="#3A86FF" fill-opacity="0.3" transform="rotate(-180 30 75)"/>
  <rect x="50" y="85" width="12" height="40" rx="4" fill="#3A86FF" fill-opacity="0.3" transform="rotate(-180 50 85)"/>
  <rect x="70" y="95" width="12" height="50" rx="4" fill="#3A86FF" fill-opacity="0.3" transform="rotate(-180 70 95)"/>
  <rect x="90" y="90" width="12" height="45" rx="4" fill="#3A86FF" fill-opacity="0.3" transform="rotate(-180 90 90)"/>
  
  <!-- キラキラエフェクト -->
  <path d="M100 25L105 35L115 40L105 45L100 55L95 45L85 40L95 35L100 25Z" fill="#FFD60A"/>
  <path d="M25 85L28 91L34 94L28 97L25 103L22 97L16 94L22 91L25 85Z" fill="#FFD60A" fill-opacity="0.7"/>
  
  <!-- グラデーションオーバーレイ -->
  <circle cx="60" cy="60" r="58" fill="url(#paint0_radial)" fill-opacity="0.2" stroke="#3A86FF" stroke-width="4"/>
  
  <!-- グラデーション定義 -->
  <defs>
    <radialGradient id="paint0_radial" cx="0" cy="0" r="1" gradientUnits="userSpaceOnUse" gradientTransform="translate(40 40) rotate(45) scale(84.8528)">
      <stop stop-color="white"/>
      <stop offset="1" stop-color="white" stop-opacity="0"/>
    </radialGradient>
  </defs>
</svg> 