<svg width="200" height="60" viewBox="0 0 200 60" fill="none" xmlns="http://www.w3.org/2000/svg">
  <!-- ロゴマーク部分 -->
  <path d="M15 15H45V45H15V15Z" fill="#3A86FF" />
  <path d="M25 25V35L35 30L25 25Z" fill="white" />
  <path d="M15 15H30V30H15V15Z" fill="#FF3366" />
  
  <!-- テキスト部分（シンプルで洗練されたスタイル） -->
  <path d="M60 20V40H55V20H60Z" fill="#FF3366" />
  <path d="M64 30C64 26.134 65.5 22.5 68.5 20L72 24C70.167 25.667 69.25 27.833 69.25 30C69.25 32.167 70.167 34.333 72 36L68.5 40C65.5 37.5 64 33.866 64 30Z" fill="#FF3366" />
  <path d="M75 23C75 21.343 76.343 20 78 20C79.657 20 81 21.343 81 23C81 24.657 79.657 26 78 26C76.343 26 75 24.657 75 23Z" fill="#FF3366" />
  <path d="M75 37C75 35.343 76.343 34 78 34C79.657 34 81 35.343 81 37C81 38.657 79.657 40 78 40C76.343 40 75 38.657 75 37Z" fill="#FF3366" />
  <path d="M85 20H94C96.5 20 98.75 20.833 100.75 22.5C102.75 24.167 103.75 26.667 103.75 30C103.75 33.333 102.75 35.833 100.75 37.5C98.75 39.167 96.5 40 94 40H85V20ZM90 35H93.5C94.667 35 95.583 34.583 96.25 33.75C96.917 32.917 97.25 31.667 97.25 30C97.25 28.333 96.917 27.083 96.25 26.25C95.583 25.417 94.667 25 93.5 25H90V35Z" fill="#3A86FF" />
  <path d="M115 20H125C127.5 20 129.583 20.917 131.25 22.75C132.917 24.583 133.75 27.083 133.75 30.25C133.75 33.417 132.917 35.917 131.25 37.75C129.583 39.583 127.5 40.5 125 40.5H115V20ZM120 35.5H124.5C125.667 35.5 126.583 35.083 127.25 34.25C127.917 33.417 128.25 32.083 128.25 30.25C128.25 28.417 127.917 27.083 127.25 26.25C126.583 25.417 125.667 25 124.5 25H120V35.5Z" fill="#3A86FF" />
  <path d="M139 20L144 34L149 20H155L146 40H142L133 20H139Z" fill="#3A86FF" />
  <path d="M158 20H173V25H163V27.5H171V32.5H163V35H173V40H158V20Z" fill="#FF3366" />
  
  <!-- アクセント要素 -->
  <circle cx="180" cy="25" r="5" fill="#FFD60A" />
  <rect x="178" y="33" width="4" height="7" rx="2" fill="#FFD60A" />
</svg> 