<svg width="200" height="60" viewBox="0 0 200 60" fill="none" xmlns="http://www.w3.org/2000/svg">
  <!-- 再生アイコン部分 -->
  <path d="M30 10C18.954 10 10 18.954 10 30C10 41.046 18.954 50 30 50C41.046 50 50 41.046 50 30C50 18.954 41.046 10 30 10Z" fill="#FF3366"/>
  <path d="M26 22V38L38 30L26 22Z" fill="white"/>
  
  <!-- チャート分析要素 -->
  <rect x="55" y="30" width="5" height="15" rx="2" fill="#3A86FF"/>
  <rect x="65" y="25" width="5" height="20" rx="2" fill="#FF3366"/>
  <rect x="75" y="20" width="5" height="25" rx="2" fill="#3A86FF"/>
  <rect x="85" y="15" width="5" height="30" rx="2" fill="#FF3366"/>
  
  <!-- テキスト部分 -->
  <path d="M108.568 42H103.264V20.4H114.824C117.224 20.4 119.224 21.064 120.824 22.392C122.424 23.72 123.224 25.432 123.224 27.528C123.224 29.624 122.424 31.336 120.824 32.664C119.224 33.992 117.224 34.656 114.824 34.656H108.568V42ZM108.568 30.12H114.248C115.256 30.12 116.04 29.848 116.6 29.304C117.176 28.744 117.464 28.008 117.464 27.096C117.464 26.184 117.176 25.456 116.6 24.912C116.04 24.352 115.256 24.072 114.248 24.072H108.568V30.12Z" fill="#FF3366"/>
  <path d="M136.644 42.288C134.708 42.288 132.98 41.864 131.46 41.016C129.956 40.152 128.78 38.968 127.932 37.464C127.084 35.944 126.66 34.232 126.66 32.328C126.66 30.424 127.084 28.72 127.932 27.216C128.78 25.696 129.956 24.512 131.46 23.664C132.98 22.8 134.708 22.368 136.644 22.368C138.58 22.368 140.3 22.8 141.804 23.664C143.324 24.512 144.508 25.696 145.356 27.216C146.204 28.72 146.628 30.424 146.628 32.328C146.628 34.232 146.204 35.944 145.356 37.464C144.508 38.968 143.324 40.152 141.804 41.016C140.3 41.864 138.58 42.288 136.644 42.288ZM136.644 37.464C138.004 37.464 139.108 36.992 139.956 36.048C140.82 35.088 141.252 33.848 141.252 32.328C141.252 30.808 140.82 29.576 139.956 28.632C139.108 27.672 138.004 27.192 136.644 27.192C135.284 27.192 134.172 27.672 133.308 28.632C132.46 29.576 132.036 30.808 132.036 32.328C132.036 33.848 132.46 35.088 133.308 36.048C134.172 36.992 135.284 37.464 136.644 37.464Z" fill="#3A86FF"/>
  <path d="M172.25 22.656V42H166.994V33.384H159.626V42H154.346V22.656H159.626V29.424H166.994V22.656H172.25Z" fill="#FF3366"/>
  <path d="M186.671 42.288C183.911 42.288 181.687 41.448 179.999 39.768C178.327 38.088 177.991 35.72 177.991 32.664V22.656H183.247V32.664C183.247 34.28 183.535 35.464 184.111 36.216C184.703 36.952 185.583 37.32 186.743 37.32C187.887 37.32 188.751 36.952 189.343 36.216C189.935 35.464 190.231 34.28 190.231 32.664V22.656H195.463V32.664C195.463 35.72 195.119 38.088 194.431 39.768C193.759 41.448 192.543 42.288 190.783 42.288H186.671Z" fill="#3A86FF"/>
</svg> 